<svg xmlns="http://www.w3.org/2000/svg" viewBox="0 0 43.03 46.66"><defs><style>.cls-1{fill:#419f00;}</style></defs><title>Recurso 2</title><g id="Capa_2" data-name="Capa 2"><g id="Capa_1-2" data-name="Capa 1"><path class="cls-1" d="M24.43,46.66H2.74l-.21-.07A3.14,3.14,0,0,1,0,43.4V3.27A3.14,3.14,0,0,1,3.24,0H23.83a3.21,3.21,0,0,1,2,.67A3.26,3.26,0,0,1,27.1,3.52c0,.8,0,1.6,0,2.42l.53.08a15.92,15.92,0,0,1,5.77,1.71,17.09,17.09,0,0,1,9.4,12.81,16.39,16.39,0,0,1-.71,8.3,17.11,17.11,0,0,1-6.54,8.64,16.91,16.91,0,0,1-8,3c-.34,0-.46.15-.45.51,0,.92,0,1.85,0,2.77a2.84,2.84,0,0,1-.66,1.71A3.59,3.59,0,0,1,24.43,46.66Zm.45-5.86,0-.2a19.82,19.82,0,0,1-5.13-1,17.46,17.46,0,0,1-8.41-6.48A17.3,17.3,0,0,1,9,28.27a18.26,18.26,0,0,1-.74-5.33H5.84l4.51-4.5L14.86,23H12.61a13.07,13.07,0,0,0,25.91,2.7,12.49,12.49,0,0,0-2-9.73,13,13,0,0,0-11.63-5.77V5H2.23V40.8ZM13.56,41.94a1.58,1.58,0,0,0,0,3.15,1.58,1.58,0,1,0,0-3.15Zm0-39.66H10.39c-.28,0-.54.06-.53.4s.27.36.53.36h6.32c.25,0,.51,0,.53-.36s-.25-.4-.53-.4Z"/><path class="cls-1" d="M20,26.25H23.7c-.1.45-.17.87-.28,1.27a.35.35,0,0,1-.26.23c-1.9,0-3.81,0-5.77,0A4.43,4.43,0,0,1,19.13,25c.9-.68,1.85-1.27,2.77-1.92a2.11,2.11,0,0,0,1-1.79.8.8,0,0,0-.82-.89,1.41,1.41,0,0,0-1.57,1.16c-.11.41-.3.56-.72.51a9.19,9.19,0,0,0-1.05,0A3.41,3.41,0,0,1,21.55,19a3.59,3.59,0,0,1,2.09.26,1.86,1.86,0,0,1,1.06,1.67,3.58,3.58,0,0,1-1.77,3.2c-.76.52-1.56,1-2.33,1.51-.23.16-.44.35-.66.53Z"/><path class="cls-1" d="M27.71,27.76c.14-.64.26-1.23.39-1.87H24.63a4.09,4.09,0,0,1,.83-2.2c1.23-1.42,2.4-2.9,3.58-4.37a.76.76,0,0,1,.69-.33c.48,0,1,0,1.52,0L30.09,24.5h1c-.1.48-.19.91-.29,1.36h-1c-.11.53-.24,1-.33,1.55-.05.26-.14.37-.41.36C28.63,27.75,28.2,27.76,27.71,27.76Zm-1.53-3.25h1.31c.89,0,.89,0,1.08-.85l.12-.53c.16-.75.31-1.5.46-2.25l-.07,0C28.14,22.05,27.19,23.24,26.18,24.51Z"/></g></g></svg>