<svg xmlns="http://www.w3.org/2000/svg" viewBox="0 0 15.84 25.34"><defs><style>.cls-1{fill:#419f00;}</style></defs><title>celular</title><g id="Capa_2" data-name="Capa 2"><g id="Capa_1-2" data-name="Capa 1"><path class="cls-1" d="M13.46,0H2.38A2.37,2.37,0,0,0,0,2.38V23a2.37,2.37,0,0,0,2.38,2.37H13.46A2.38,2.38,0,0,0,15.84,23V2.38A2.38,2.38,0,0,0,13.46,0ZM7.92,23.76A1.59,1.59,0,1,1,9.5,22.17,1.58,1.58,0,0,1,7.92,23.76Zm5.54-5.35a.6.6,0,0,1-.59.6H3a.59.59,0,0,1-.59-.6V3A.58.58,0,0,1,3,2.38h9.9a.59.59,0,0,1,.59.59Z"/></g></g></svg>