<svg xmlns="http://www.w3.org/2000/svg" xmlns:xlink="http://www.w3.org/1999/xlink" viewBox="0 0 267.76 73.74"><defs><style>.cls-1{fill:#3b783e;}.cls-2{fill:#5fba53;}.cls-3{fill:url(#linear-gradient);}.cls-4{fill:url(#radial-gradient);}.cls-5{fill:url(#linear-gradient-2);}.cls-6{fill:url(#radial-gradient-2);}.cls-7{fill:#d0d2d3;}</style><linearGradient id="linear-gradient" x1="63.7" y1="65.61" x2="35.52" y2="37.43" gradientUnits="userSpaceOnUse"><stop offset="0" stop-color="#5fba53"/><stop offset="0.26" stop-color="#5db652"/><stop offset="0.5" stop-color="#57ab4e"/><stop offset="0.73" stop-color="#4d9848"/><stop offset="0.95" stop-color="#3e7e40"/><stop offset="1" stop-color="#3b783e"/></linearGradient><radialGradient id="radial-gradient" cx="49.02" cy="21.84" r="29.3" gradientUnits="userSpaceOnUse"><stop offset="0" stop-color="#93cb77"/><stop offset="0.31" stop-color="#90c975"/><stop offset="0.54" stop-color="#87c46e"/><stop offset="0.74" stop-color="#77bc63"/><stop offset="0.92" stop-color="#61af53"/><stop offset="1" stop-color="#55a94b"/></radialGradient><linearGradient id="linear-gradient-2" x1="635.07" y1="-97.57" x2="606.9" y2="-125.74" gradientTransform="translate(640.47 -89.43) rotate(180)" xlink:href="#linear-gradient"/><radialGradient id="radial-gradient-2" cx="620.39" cy="-141.33" r="29.3" gradientTransform="translate(640.47 -89.43) rotate(180)" xlink:href="#radial-gradient"/></defs><title>logo color</title><g id="Capa_2" data-name="Capa 2"><g id="Capa_1-2" data-name="Capa 1"><path class="cls-1" d="M116.11,71.15l-.12-1h0a3,3,0,0,1-2.44,1.18A2.27,2.27,0,0,1,111.06,69c0-1.93,1.71-3,4.8-3v-.16A1.65,1.65,0,0,0,114,64.06a4,4,0,0,0-2.07.59l-.33-1a4.93,4.93,0,0,1,2.62-.71c2.44,0,3,1.66,3,3.26v3a11,11,0,0,0,.14,1.91Zm-.22-4.07c-1.58,0-3.38.25-3.38,1.8a1.28,1.28,0,0,0,1.37,1.38,2,2,0,0,0,1.93-1.33,1.55,1.55,0,0,0,.08-.47Z"/><path class="cls-1" d="M119.63,59.44h1.46V71.15h-1.46Z"/><path class="cls-1" d="M132.72,70.86a5.53,5.53,0,0,1-2.3.46,3.79,3.79,0,0,1-4-4.08A4.06,4.06,0,0,1,130.74,63a4.84,4.84,0,0,1,2,.42l-.33,1.12a3.35,3.35,0,0,0-1.68-.38,2.76,2.76,0,0,0-2.82,3,2.73,2.73,0,0,0,2.77,3,4.16,4.16,0,0,0,1.78-.39Z"/><path class="cls-1" d="M141.09,69c0,.82,0,1.55.07,2.17h-1.29l-.08-1.3h0a3,3,0,0,1-2.64,1.48c-1.25,0-2.76-.69-2.76-3.49V63.17h1.46v4.42c0,1.52.46,2.54,1.78,2.54a2.1,2.1,0,0,0,1.91-1.32,2.17,2.17,0,0,0,.13-.74v-4.9h1.45Z"/><path class="cls-1" d="M145.12,60.93a.9.9,0,0,1-1.8,0,.88.88,0,0,1,.91-.91A.86.86,0,0,1,145.12,60.93ZM143.5,71.15v-8H145v8Z"/><path class="cls-1" d="M154.26,59.44v9.65c0,.71,0,1.52.06,2.06H153L153,69.77h0a2.94,2.94,0,0,1-2.72,1.56c-1.93,0-3.41-1.63-3.41-4,0-2.66,1.63-4.29,3.57-4.29a2.66,2.66,0,0,1,2.41,1.22h0V59.44Zm-1.45,7a2.54,2.54,0,0,0-.07-.61,2.13,2.13,0,0,0-2.1-1.68c-1.5,0-2.39,1.32-2.39,3.08s.8,3,2.36,3a2.17,2.17,0,0,0,2.13-1.73,2.48,2.48,0,0,0,.07-.63Z"/><path class="cls-1" d="M161.09,71.15l-.12-1h-.05a3,3,0,0,1-2.44,1.18A2.27,2.27,0,0,1,156,69c0-1.93,1.71-3,4.8-3v-.16A1.65,1.65,0,0,0,159,64.06a4,4,0,0,0-2.07.59l-.33-1a4.93,4.93,0,0,1,2.62-.71c2.44,0,3,1.66,3,3.26v3a11,11,0,0,0,.14,1.91Zm-.22-4.07c-1.58,0-3.38.25-3.38,1.8a1.28,1.28,0,0,0,1.37,1.38,2,2,0,0,0,1.93-1.33,1.55,1.55,0,0,0,.08-.47Z"/><path class="cls-1" d="M171.51,59.44v9.65c0,.71,0,1.52.07,2.06h-1.31l-.06-1.38h0a2.93,2.93,0,0,1-2.72,1.56c-1.93,0-3.41-1.63-3.41-4,0-2.66,1.63-4.29,3.58-4.29A2.69,2.69,0,0,1,170,64.21h0V59.44Zm-1.45,7a2.54,2.54,0,0,0-.07-.61,2.12,2.12,0,0,0-2.09-1.68c-1.5,0-2.39,1.32-2.39,3.08s.79,3,2.36,3A2.17,2.17,0,0,0,170,68.43a2.48,2.48,0,0,0,.07-.63Z"/><path class="cls-1" d="M181.14,67.1a3.89,3.89,0,0,1-4,4.23,3.79,3.79,0,0,1-3.83-4.1,3.9,3.9,0,0,1,4-4.24A3.78,3.78,0,0,1,181.14,67.1Zm-6.33.08c0,1.75,1,3.07,2.42,3.07s2.43-1.31,2.43-3.11c0-1.35-.68-3.06-2.39-3.06S174.81,65.66,174.81,67.18Z"/><path class="cls-1" d="M193.37,59.44v9.65c0,.71,0,1.52.06,2.06h-1.3l-.07-1.38h0a3,3,0,0,1-2.72,1.56c-1.93,0-3.42-1.63-3.42-4,0-2.66,1.64-4.29,3.58-4.29a2.68,2.68,0,0,1,2.41,1.22h0V59.44Zm-1.46,7a2.53,2.53,0,0,0-.06-.61,2.14,2.14,0,0,0-2.1-1.68c-1.5,0-2.39,1.32-2.39,3.08s.79,3,2.36,3a2.19,2.19,0,0,0,2.13-1.73,2.5,2.5,0,0,0,.06-.63Z"/><path class="cls-1" d="M196.58,67.43a2.56,2.56,0,0,0,2.74,2.77,5.23,5.23,0,0,0,2.21-.42l.25,1a6.48,6.48,0,0,1-2.66.5,3.71,3.71,0,0,1-3.92-4c0-2.41,1.42-4.3,3.74-4.3,2.61,0,3.3,2.29,3.3,3.76a4.88,4.88,0,0,1-.05.68Zm4.26-1a2.07,2.07,0,0,0-2-2.36,2.4,2.4,0,0,0-2.23,2.36Z"/><path class="cls-1" d="M207.53,59.44H209V71.15h-1.46Z"/><path class="cls-1" d="M215.85,71.15l-.12-1h0a3,3,0,0,1-2.44,1.18A2.27,2.27,0,0,1,210.8,69c0-1.93,1.72-3,4.8-3v-.16a1.65,1.65,0,0,0-1.81-1.85,4,4,0,0,0-2.08.59l-.33-1A4.93,4.93,0,0,1,214,63c2.44,0,3,1.66,3,3.26v3a11.1,11.1,0,0,0,.13,1.91Zm-.22-4.07c-1.58,0-3.38.25-3.38,1.8a1.28,1.28,0,0,0,1.37,1.38,2,2,0,0,0,1.93-1.33,1.55,1.55,0,0,0,.08-.47Z"/><path class="cls-1" d="M223,71.15V64.27H221.9v-1.1H223v-.38A3.77,3.77,0,0,1,224,60a2.75,2.75,0,0,1,1.94-.74,3.51,3.51,0,0,1,1.24.23l-.2,1.12a2.13,2.13,0,0,0-.92-.18c-1.24,0-1.55,1.09-1.55,2.31v.43h1.93v1.1h-1.93v6.88Z"/><path class="cls-1" d="M232.11,71.15l-.11-1H232a3,3,0,0,1-2.44,1.18A2.28,2.28,0,0,1,227.06,69c0-1.93,1.72-3,4.8-3v-.16a1.65,1.65,0,0,0-1.81-1.85,4,4,0,0,0-2.08.59l-.33-1a5,5,0,0,1,2.62-.71c2.45,0,3,1.66,3,3.26v3a11.1,11.1,0,0,0,.13,1.91Zm-.21-4.07c-1.59,0-3.38.25-3.38,1.8a1.27,1.27,0,0,0,1.36,1.38,2,2,0,0,0,1.93-1.33,1.56,1.56,0,0,0,.09-.47Z"/><path class="cls-1" d="M235.64,65.33c0-.82,0-1.5-.07-2.16h1.27l.07,1.29H237A2.76,2.76,0,0,1,239.47,63a2.36,2.36,0,0,1,2.26,1.6h0a3.3,3.3,0,0,1,.89-1,2.76,2.76,0,0,1,1.77-.56c1.05,0,2.62.69,2.62,3.46v4.7h-1.42V66.63c0-1.53-.56-2.45-1.73-2.45a1.88,1.88,0,0,0-1.72,1.32,2.53,2.53,0,0,0-.11.72v4.93h-1.42V66.37c0-1.27-.56-2.19-1.67-2.19a2,2,0,0,0-1.79,1.45,1.83,1.83,0,0,0-.12.71v4.81h-1.42Z"/><path class="cls-1" d="M251,60.93a.85.85,0,0,1-.92.89.86.86,0,0,1-.87-.89.88.88,0,0,1,.9-.91A.86.86,0,0,1,251,60.93ZM249.4,71.15v-8h1.45v8Z"/><path class="cls-1" d="M253.26,59.44h1.45V71.15h-1.45Z"/><path class="cls-1" d="M258.77,60.93a.9.9,0,0,1-1.8,0,.88.88,0,0,1,.91-.91A.86.86,0,0,1,258.77,60.93Zm-1.62,10.22v-8h1.45v8Z"/><path class="cls-1" d="M265.43,71.15l-.12-1h0a3,3,0,0,1-2.45,1.18A2.27,2.27,0,0,1,260.38,69c0-1.93,1.72-3,4.8-3v-.16a1.65,1.65,0,0,0-1.81-1.85,4,4,0,0,0-2.08.59l-.33-1a5,5,0,0,1,2.62-.71c2.44,0,3,1.66,3,3.26v3a11.1,11.1,0,0,0,.13,1.91Zm-.21-4.07c-1.59,0-3.39.25-3.39,1.8a1.28,1.28,0,0,0,1.37,1.38,2,2,0,0,0,1.93-1.33,1.56,1.56,0,0,0,.09-.47Z"/><path class="cls-2" d="M106.07,23.69h-.89v-5h-6v5h-.88V13.24h.88v4.69h6V13.24h.89Z"/><path class="cls-2" d="M107.68,19.69a4.9,4.9,0,0,1,.25-1.56,3.85,3.85,0,0,1,.7-1.24,3.27,3.27,0,0,1,1.09-.82,3.47,3.47,0,0,1,1.42-.29,3.53,3.53,0,0,1,1.44.29,3.21,3.21,0,0,1,1.1.82,3.65,3.65,0,0,1,.69,1.24,4.64,4.64,0,0,1,.25,1.56v.24a4.6,4.6,0,0,1-.25,1.56,3.65,3.65,0,0,1-.69,1.24,3.11,3.11,0,0,1-1.09.81,3.67,3.67,0,0,1-2.86,0,3.15,3.15,0,0,1-1.1-.81,3.85,3.85,0,0,1-.7-1.24,4.86,4.86,0,0,1-.25-1.56Zm.87.24a4.13,4.13,0,0,0,.17,1.22,3.08,3.08,0,0,0,.5,1,2.38,2.38,0,0,0,1.94.95,2.33,2.33,0,0,0,1.11-.26,2.38,2.38,0,0,0,.82-.69,3.08,3.08,0,0,0,.5-1,4.13,4.13,0,0,0,.17-1.22v-.24a4,4,0,0,0-.17-1.2,3.23,3.23,0,0,0-.5-1,2.64,2.64,0,0,0-.82-.7,2.44,2.44,0,0,0-1.13-.26,2.39,2.39,0,0,0-1.11.26,2.6,2.6,0,0,0-.81.7,3.23,3.23,0,0,0-.5,1,4,4,0,0,0-.17,1.2Z"/><path class="cls-2" d="M120.67,21.72a1.34,1.34,0,0,0-.08-.48,1.08,1.08,0,0,0-.31-.45,2.28,2.28,0,0,0-.63-.39,5.29,5.29,0,0,0-1.05-.32,8.51,8.51,0,0,1-1.15-.32,3.29,3.29,0,0,1-.86-.43,1.59,1.59,0,0,1-.52-.61,1.77,1.77,0,0,1-.18-.82,1.8,1.8,0,0,1,.19-.82,1.82,1.82,0,0,1,.54-.67,2.62,2.62,0,0,1,.86-.46,3.69,3.69,0,0,1,1.14-.17,3.8,3.8,0,0,1,1.21.18,2.57,2.57,0,0,1,.9.48,2.14,2.14,0,0,1,.57.74,2.17,2.17,0,0,1,.19.92h-.86a1.37,1.37,0,0,0-.13-.59,1.58,1.58,0,0,0-.39-.51,2.11,2.11,0,0,0-.63-.35,2.54,2.54,0,0,0-.86-.14,2.75,2.75,0,0,0-.86.12,2,2,0,0,0-.58.32,1.21,1.21,0,0,0-.33.43,1.26,1.26,0,0,0-.1.49,1.19,1.19,0,0,0,.08.47.9.9,0,0,0,.3.39,2,2,0,0,0,.63.34,9,9,0,0,0,1.06.31,9.41,9.41,0,0,1,1.21.36,3.58,3.58,0,0,1,.85.48,1.64,1.64,0,0,1,.49.63,1.94,1.94,0,0,1,.16.82,1.91,1.91,0,0,1-.77,1.56,2.87,2.87,0,0,1-.91.45,4.28,4.28,0,0,1-1.18.15,4.06,4.06,0,0,1-1.31-.19,2.79,2.79,0,0,1-1-.51,2.14,2.14,0,0,1-.58-.74,1.92,1.92,0,0,1-.2-.88h.86a1.49,1.49,0,0,0,.24.77,1.59,1.59,0,0,0,.51.49,2.29,2.29,0,0,0,.69.26,3.81,3.81,0,0,0,.74.08,2.79,2.79,0,0,0,.86-.12,1.86,1.86,0,0,0,.63-.31,1.14,1.14,0,0,0,.38-.44A1.08,1.08,0,0,0,120.67,21.72Z"/><path class="cls-2" d="M129.34,19.89a5.8,5.8,0,0,1-.2,1.6,3.83,3.83,0,0,1-.57,1.24,2.76,2.76,0,0,1-.93.81,2.6,2.6,0,0,1-1.26.29,3.32,3.32,0,0,1-1.43-.29,2.82,2.82,0,0,1-1-.83v4h-.85V15.92h.8l0,1.1a2.81,2.81,0,0,1,1-.91,2.93,2.93,0,0,1,1.43-.33,2.73,2.73,0,0,1,1.27.28,2.67,2.67,0,0,1,.94.8,3.73,3.73,0,0,1,.57,1.24,5.92,5.92,0,0,1,.2,1.63Zm-.86-.16a5.66,5.66,0,0,0-.14-1.26,3.13,3.13,0,0,0-.42-1,2.23,2.23,0,0,0-.72-.68,2.15,2.15,0,0,0-1-.24,2.64,2.64,0,0,0-.83.12,2,2,0,0,0-.62.33,1.87,1.87,0,0,0-.46.47,3.5,3.5,0,0,0-.32.56v3.73a2.73,2.73,0,0,0,.34.54,2.19,2.19,0,0,0,1.11.72,2.79,2.79,0,0,0,.79.11,1.93,1.93,0,0,0,1-.25,2,2,0,0,0,.72-.68,3.13,3.13,0,0,0,.42-1,5.75,5.75,0,0,0,.14-1.27Z"/><path class="cls-2" d="M130.83,13.68a.62.62,0,0,1,.15-.42.57.57,0,0,1,.43-.16.55.55,0,0,1,.6.58.56.56,0,0,1-.16.41.58.58,0,0,1-.44.16.57.57,0,0,1-.43-.16A.59.59,0,0,1,130.83,13.68Zm1,10H131V15.92h.86Z"/><path class="cls-2" d="M135.14,13.94v2h1.61v.71h-1.61V21.8a2,2,0,0,0,.08.66,1,1,0,0,0,.22.39.72.72,0,0,0,.33.18,1.52,1.52,0,0,0,.38,0l.37,0,.33,0,0,.7a1.68,1.68,0,0,1-.41.09,4.36,4.36,0,0,1-.51,0,2.48,2.48,0,0,1-.68-.09,1.31,1.31,0,0,1-.53-.34,1.73,1.73,0,0,1-.35-.63,3.33,3.33,0,0,1-.12-1V16.63h-1.43v-.71h1.43v-2Z"/><path class="cls-2" d="M143.06,23.69a2.56,2.56,0,0,1-.11-.49,3.92,3.92,0,0,1,0-.59,4.06,4.06,0,0,1-.46.47,3.09,3.09,0,0,1-.6.39,3.23,3.23,0,0,1-.72.26,3.38,3.38,0,0,1-.86.1,3.05,3.05,0,0,1-1-.16,2.45,2.45,0,0,1-.79-.46,2.22,2.22,0,0,1-.44-2.6,2.17,2.17,0,0,1,.7-.78,3.72,3.72,0,0,1,1.12-.49,6.08,6.08,0,0,1,1.48-.17h1.59v-.88a1.69,1.69,0,0,0-.52-1.31,2.1,2.1,0,0,0-1.49-.47,2.73,2.73,0,0,0-.83.12,2,2,0,0,0-.66.33,1.55,1.55,0,0,0-.43.5,1.29,1.29,0,0,0-.16.61h-.86a1.7,1.7,0,0,1,.22-.84,2.2,2.2,0,0,1,.6-.73,3.33,3.33,0,0,1,1-.52,3.84,3.84,0,0,1,1.21-.19,3.79,3.79,0,0,1,1.14.16,2.37,2.37,0,0,1,.89.47,2.19,2.19,0,0,1,.58.79,2.75,2.75,0,0,1,.21,1.11v3.76c0,.13,0,.27,0,.41s0,.29,0,.42,0,.26.08.38a1.74,1.74,0,0,0,.1.32v.09Zm-2.7-.62a3,3,0,0,0,.87-.12,2.59,2.59,0,0,0,.72-.32,2.63,2.63,0,0,0,.56-.49,2.35,2.35,0,0,0,.38-.6v-1.7h-1.47a5.92,5.92,0,0,0-1.18.11,3.11,3.11,0,0,0-.88.34,1.61,1.61,0,0,0-.55.55,1.34,1.34,0,0,0-.19.72,1.45,1.45,0,0,0,.12.59,1.38,1.38,0,0,0,.35.48,1.43,1.43,0,0,0,.55.32A2,2,0,0,0,140.36,23.07Z"/><path class="cls-2" d="M146.63,23.69h-.87v-11h.87Z"/><path class="cls-2" d="M152,23.69V13.24h3.08a5.63,5.63,0,0,1,1.43.16,3,3,0,0,1,1.08.5,2.09,2.09,0,0,1,.67.85A2.85,2.85,0,0,1,158.5,16a2.68,2.68,0,0,1-.11.76,1.9,1.9,0,0,1-.33.65,1.94,1.94,0,0,1-.52.51,2.24,2.24,0,0,1-.69.35,2.55,2.55,0,0,1,.83.34,2.46,2.46,0,0,1,.64.56,2.6,2.6,0,0,1,.41.75,2.46,2.46,0,0,1,.14.86,3.08,3.08,0,0,1-.24,1.26,2.55,2.55,0,0,1-.68.93,3.15,3.15,0,0,1-1.06.56,4.47,4.47,0,0,1-1.36.19Zm.88-5.76h2.41a2.74,2.74,0,0,0,1.71-.52,1.78,1.78,0,0,0,.61-1.46,1.74,1.74,0,0,0-.63-1.48,3.11,3.11,0,0,0-1.9-.48h-2.2Zm0,.74v4.27h2.65a3.28,3.28,0,0,0,1-.15,2.14,2.14,0,0,0,.77-.43,1.68,1.68,0,0,0,.49-.68,2.25,2.25,0,0,0,.17-.92,2.48,2.48,0,0,0-.14-.82,1.91,1.91,0,0,0-.44-.67,2.13,2.13,0,0,0-.75-.44,3.07,3.07,0,0,0-1.06-.16Z"/><path class="cls-2" d="M165.34,23.69a2,2,0,0,1-.11-.49,5.9,5.9,0,0,1-.06-.59,3.28,3.28,0,0,1-.45.47,3.09,3.09,0,0,1-.6.39,3.14,3.14,0,0,1-.73.26,3.25,3.25,0,0,1-.85.1,3.05,3.05,0,0,1-1-.16,2.45,2.45,0,0,1-.79-.46,2.17,2.17,0,0,1-.51-.7,2.3,2.3,0,0,1-.17-.88,2.13,2.13,0,0,1,.24-1,2.17,2.17,0,0,1,.7-.78,3.72,3.72,0,0,1,1.12-.49,6.06,6.06,0,0,1,1.47-.17h1.6v-.88a1.69,1.69,0,0,0-.52-1.31,2.1,2.1,0,0,0-1.49-.47,2.73,2.73,0,0,0-.83.12,2,2,0,0,0-.66.33,1.55,1.55,0,0,0-.43.5,1.29,1.29,0,0,0-.16.61h-.86a1.7,1.7,0,0,1,.22-.84,2.2,2.2,0,0,1,.6-.73A3.27,3.27,0,0,1,162,16a4,4,0,0,1,1.22-.19,3.79,3.79,0,0,1,1.14.16,2.37,2.37,0,0,1,.89.47,2.19,2.19,0,0,1,.58.79,2.75,2.75,0,0,1,.21,1.11v3.76c0,.13,0,.27,0,.41a2.72,2.72,0,0,0,0,.42c0,.13,0,.26.08.38a1.74,1.74,0,0,0,.1.32v.09Zm-2.7-.62a3,3,0,0,0,.87-.12,2.59,2.59,0,0,0,.72-.32,2.54,2.54,0,0,0,.94-1.09v-1.7H163.7a5.92,5.92,0,0,0-1.18.11,3.11,3.11,0,0,0-.88.34,1.52,1.52,0,0,0-.55.55,1.34,1.34,0,0,0-.19.72,1.45,1.45,0,0,0,.12.59,1.27,1.27,0,0,0,.35.48,1.43,1.43,0,0,0,.55.32A2,2,0,0,0,162.64,23.07Zm1.69-10.32h1l-1.66,2H163Z"/><path class="cls-2" d="M172.59,21.72a1.34,1.34,0,0,0-.08-.48,1.08,1.08,0,0,0-.31-.45,2.28,2.28,0,0,0-.63-.39,5.29,5.29,0,0,0-1-.32,8.51,8.51,0,0,1-1.15-.32,3.45,3.45,0,0,1-.86-.43,1.68,1.68,0,0,1-.52-.61,1.77,1.77,0,0,1-.18-.82,1.8,1.8,0,0,1,.19-.82,1.93,1.93,0,0,1,.54-.67,2.62,2.62,0,0,1,.86-.46,3.69,3.69,0,0,1,1.14-.17,3.8,3.8,0,0,1,1.21.18,2.72,2.72,0,0,1,.91.48,2.23,2.23,0,0,1,.56.74,2.17,2.17,0,0,1,.19.92h-.86a1.37,1.37,0,0,0-.13-.59A1.58,1.58,0,0,0,172,17a2.11,2.11,0,0,0-.63-.35,2.54,2.54,0,0,0-.86-.14,2.75,2.75,0,0,0-.86.12,2,2,0,0,0-.58.32,1.21,1.21,0,0,0-.33.43,1.26,1.26,0,0,0-.1.49,1.19,1.19,0,0,0,.08.47.9.9,0,0,0,.3.39,2,2,0,0,0,.63.34,9,9,0,0,0,1.06.31,9,9,0,0,1,1.21.36,3.39,3.39,0,0,1,.85.48,1.64,1.64,0,0,1,.49.63,1.94,1.94,0,0,1,.17.82,2,2,0,0,1-.78,1.56,2.92,2.92,0,0,1-.9.45,4.4,4.4,0,0,1-1.19.15,4.06,4.06,0,0,1-1.31-.19,2.79,2.79,0,0,1-.95-.51,2.14,2.14,0,0,1-.58-.74,1.92,1.92,0,0,1-.2-.88h.86a1.49,1.49,0,0,0,.24.77,1.59,1.59,0,0,0,.51.49,2.29,2.29,0,0,0,.69.26,3.81,3.81,0,0,0,.74.08,2.79,2.79,0,0,0,.86-.12,1.86,1.86,0,0,0,.63-.31,1.14,1.14,0,0,0,.38-.44A1.08,1.08,0,0,0,172.59,21.72Z"/><path class="cls-2" d="M175,13.68a.58.58,0,0,1,.16-.42.56.56,0,0,1,.43-.16.57.57,0,0,1,.43.16.58.58,0,0,1,.16.42.56.56,0,0,1-.16.41.57.57,0,0,1-.43.16.55.55,0,0,1-.59-.57Zm1,10h-.86V15.92H176Z"/><path class="cls-2" d="M180.82,23.11a2.54,2.54,0,0,0,.78-.12,2,2,0,0,0,.67-.35,1.81,1.81,0,0,0,.49-.57,1.87,1.87,0,0,0,.22-.78h.82a2.35,2.35,0,0,1-.28,1,2.67,2.67,0,0,1-.65.81,3,3,0,0,1-.93.52,3.25,3.25,0,0,1-1.12.19,3.39,3.39,0,0,1-1.44-.29,3,3,0,0,1-1-.83,3.58,3.58,0,0,1-.63-1.23A5.32,5.32,0,0,1,177.5,20v-.3a5.34,5.34,0,0,1,.21-1.53,3.58,3.58,0,0,1,.63-1.23,3,3,0,0,1,1-.82,3.23,3.23,0,0,1,1.43-.3A3.62,3.62,0,0,1,182,16a2.82,2.82,0,0,1,.93.56,2.66,2.66,0,0,1,.64.87,3.18,3.18,0,0,1,.26,1.14H183a2.26,2.26,0,0,0-.21-.84,2,2,0,0,0-1.14-1.05,2.48,2.48,0,0,0-.82-.14,2.3,2.3,0,0,0-1.13.26,2.22,2.22,0,0,0-.76.7,3.12,3.12,0,0,0-.43,1,5.78,5.78,0,0,0-.13,1.19V20a5.78,5.78,0,0,0,.13,1.19,3,3,0,0,0,.43,1,2.1,2.1,0,0,0,.76.69A2.34,2.34,0,0,0,180.82,23.11Z"/><path class="cls-2" d="M184.68,19.69a4.9,4.9,0,0,1,.24-1.56,3.85,3.85,0,0,1,.7-1.24,3.27,3.27,0,0,1,1.09-.82,3.67,3.67,0,0,1,2.86,0,3.21,3.21,0,0,1,1.1.82,3.85,3.85,0,0,1,.7,1.24,4.9,4.9,0,0,1,.24,1.56v.24a4.86,4.86,0,0,1-.24,1.56,3.85,3.85,0,0,1-.7,1.24,3.11,3.11,0,0,1-1.09.81,3.67,3.67,0,0,1-2.86,0,3,3,0,0,1-1.09-.81,3.69,3.69,0,0,1-.71-1.24,4.86,4.86,0,0,1-.24-1.56Zm.86.24a4.13,4.13,0,0,0,.17,1.22,3.08,3.08,0,0,0,.5,1,2.38,2.38,0,0,0,1.94.95,2.33,2.33,0,0,0,1.11-.26,2.38,2.38,0,0,0,.82-.69,3.08,3.08,0,0,0,.5-1,4.14,4.14,0,0,0,.18-1.22v-.24a4,4,0,0,0-.18-1.2,3.23,3.23,0,0,0-.5-1,2.53,2.53,0,0,0-.82-.7,2.4,2.4,0,0,0-1.12-.26,2.33,2.33,0,0,0-1.11.26,2.53,2.53,0,0,0-.82.7,3.23,3.23,0,0,0-.5,1,4,4,0,0,0-.17,1.2Z"/><path class="cls-1" d="M113,46.26a6.25,6.25,0,0,1-2.38,5.18,10.3,10.3,0,0,1-6.61,1.9,16.26,16.26,0,0,1-6.93-1.19v-3a18.13,18.13,0,0,0,3.5,1.08,17.17,17.17,0,0,0,3.56.4,6.93,6.93,0,0,0,4.26-1.09,3.53,3.53,0,0,0,1.43-3,3.74,3.74,0,0,0-.52-2.07A4.88,4.88,0,0,0,107.56,43a24.64,24.64,0,0,0-3.68-1.61,12,12,0,0,1-5-3,6.65,6.65,0,0,1-1.49-4.47,5.64,5.64,0,0,1,2.21-4.69,9.18,9.18,0,0,1,5.83-1.74,16.93,16.93,0,0,1,6.95,1.41l-1,2.72a15.92,15.92,0,0,0-6-1.34,5.66,5.66,0,0,0-3.5,1,3.21,3.21,0,0,0-1.27,2.71,3.93,3.93,0,0,0,.49,2.06,4.61,4.61,0,0,0,1.59,1.49A20.09,20.09,0,0,0,106.1,39a18.67,18.67,0,0,1,4.19,2,6.42,6.42,0,0,1,2,2.24A6.61,6.61,0,0,1,113,46.26Z"/><path class="cls-1" d="M126.67,53l-.6-2.68h-.14a7.93,7.93,0,0,1-2.82,2.4,8.7,8.7,0,0,1-3.54.63,6.2,6.2,0,0,1-4.38-1.47,5.35,5.35,0,0,1-1.58-4.13q0-5.76,9.08-6l3.2-.12V40.47a4.61,4.61,0,0,0-.93-3.18,3.82,3.82,0,0,0-3-1,8.79,8.79,0,0,0-2.83.45,23,23,0,0,0-2.51,1l-1-2.33a14.72,14.72,0,0,1,3.12-1.19,13.85,13.85,0,0,1,3.34-.43,7.38,7.38,0,0,1,5.1,1.52q1.68,1.52,1.68,4.82V53Zm-6.39-2.15a5.77,5.77,0,0,0,4.09-1.4,5.24,5.24,0,0,0,1.49-4V43.74l-2.79.12a10.27,10.27,0,0,0-4.75,1,3.14,3.14,0,0,0-1.49,2.88,2.88,2.88,0,0,0,.9,2.28A3.74,3.74,0,0,0,120.28,50.84Z"/><path class="cls-1" d="M145,53V40.9a5,5,0,0,0-1-3.44,4.13,4.13,0,0,0-3.21-1.13,5.17,5.17,0,0,0-4.23,1.61c-.88,1.08-1.32,2.82-1.32,5.25V53h-3.1V34.07h2.5l.46,2.59h.17a5.85,5.85,0,0,1,2.47-2.16,7.81,7.81,0,0,1,3.5-.77q3.48,0,5.17,1.69t1.68,5.25V53Z"/><path class="cls-1" d="M174.06,53l-3-7.8H161L158,53h-3.2l9.84-25.29h2.86L177.35,53Zm-4-10.61-2.83-7.64L166.05,31c-.35,1.38-.71,2.64-1.09,3.77l-2.86,7.64Z"/><path class="cls-1" d="M190.63,53V40.9a5,5,0,0,0-1-3.44,4.13,4.13,0,0,0-3.21-1.13,5.17,5.17,0,0,0-4.23,1.61c-.88,1.08-1.32,2.82-1.32,5.25V53h-3.1V34.07h2.5l.46,2.59h.17a5.85,5.85,0,0,1,2.47-2.16,7.78,7.78,0,0,1,3.5-.77q3.48,0,5.17,1.69t1.68,5.25V53Z"/><path class="cls-1" d="M203.23,50.8a9.79,9.79,0,0,0,1.41-.12,6.88,6.88,0,0,0,1.23-.27v2.38a7.62,7.62,0,0,1-1.34.37,9.31,9.31,0,0,1-1.83.18q-5.55,0-5.55-5.84v-11h-2.67V35l2.7-1.24,1.24-4h1.85v4.34h5.46v2.42h-5.46V47.41a3.69,3.69,0,0,0,.78,2.52A2.78,2.78,0,0,0,203.23,50.8Z"/><path class="cls-1" d="M223.43,43.5a10.46,10.46,0,0,1-2.34,7.24,8.28,8.28,0,0,1-6.48,2.6,8.61,8.61,0,0,1-4.55-1.2A7.82,7.82,0,0,1,207,48.7a12,12,0,0,1-1.07-5.2,10.42,10.42,0,0,1,2.31-7.2,8.28,8.28,0,0,1,6.48-2.57,8.07,8.07,0,0,1,6.35,2.63A10.3,10.3,0,0,1,223.43,43.5Zm-14.28,0a8.85,8.85,0,0,0,1.4,5.42,5.55,5.55,0,0,0,8.27,0,8.85,8.85,0,0,0,1.41-5.42,8.6,8.6,0,0,0-1.42-5.37,5,5,0,0,0-4.17-1.8Q209.15,36.33,209.15,43.5Z"/><path class="cls-1" d="M238.59,53V40.9a5,5,0,0,0-1-3.44,4.13,4.13,0,0,0-3.21-1.13,5.16,5.16,0,0,0-4.23,1.61c-.88,1.08-1.32,2.82-1.32,5.25V53h-3.1V34.07h2.5l.46,2.59h.17a5.85,5.85,0,0,1,2.47-2.16,7.77,7.77,0,0,1,3.49-.77q3.5,0,5.17,1.69t1.69,5.25V53Z"/><path class="cls-1" d="M244.62,29a1.86,1.86,0,0,1,3.1-1.49,1.87,1.87,0,0,1,.54,1.49,1.91,1.91,0,0,1-.54,1.5,1.93,1.93,0,0,1-2.57,0A1.94,1.94,0,0,1,244.62,29ZM248,53h-3.1V34.07H248Z"/><path class="cls-1" d="M267.76,43.5a10.46,10.46,0,0,1-2.35,7.24,8.28,8.28,0,0,1-6.48,2.6,8.58,8.58,0,0,1-4.54-1.2,7.84,7.84,0,0,1-3.06-3.44,12,12,0,0,1-1.06-5.2c0-3.08.76-5.48,2.31-7.2a8.25,8.25,0,0,1,6.48-2.57,8,8,0,0,1,6.34,2.63A10.3,10.3,0,0,1,267.76,43.5Zm-14.29,0a8.92,8.92,0,0,0,1.4,5.42,5.55,5.55,0,0,0,8.27,0,8.85,8.85,0,0,0,1.41-5.42,8.54,8.54,0,0,0-1.42-5.37,5,5,0,0,0-4.16-1.8Q253.47,36.33,253.47,43.5Z"/><path class="cls-3" d="M67.46,38.35A24.34,24.34,0,0,1,52,43.89,25,25,0,0,1,45.38,43c-.62-.18-1.23-.37-1.84-.59a24.32,24.32,0,0,1-8.73-5.54l0,0a24,24,0,0,1,5.6,8.65c.22.59.42,1.2.59,1.82A23.77,23.77,0,0,1,36.28,69.2a21,21,0,0,1-1.5,1.63c.73,0,1.44,0,2.15-.07a34.62,34.62,0,0,0,8.45-1.59V47.36h22A33.1,33.1,0,0,0,69,39c0-.7.07-1.4.07-2.12C68.58,37.39,68,37.88,67.46,38.35Z"/><path class="cls-4" d="M69,34.75a33.1,33.1,0,0,0-1.61-8.37h-22V4.57A34.61,34.61,0,0,0,36.93,3c-.71-.05-1.42-.08-2.15-.08h0c-.52.52-1,1.06-1.49,1.63a23.74,23.74,0,0,0-5.6,15.34,24.06,24.06,0,0,0,.9,6.5c.18.62.37,1.23.59,1.82a24.1,24.1,0,0,0,5.6,8.65l0,0a24.32,24.32,0,0,0,8.73,5.54c.61.22,1.22.41,1.84.59a25,25,0,0,0,6.57.89,24.34,24.34,0,0,0,15.51-5.54c.57-.47,1.12-1,1.64-1.48C69.1,36.16,69.07,35.45,69,34.75Z"/><path class="cls-5" d="M1.64,35.39a24.47,24.47,0,0,1,22.08-4.64c.62.17,1.23.36,1.84.58a24.44,24.44,0,0,1,8.74,5.54l0,0a24,24,0,0,1-5.6-8.65c-.22-.59-.42-1.2-.59-1.82A23.77,23.77,0,0,1,32.82,4.54c.47-.56,1-1.11,1.5-1.63-.72,0-1.44,0-2.15.08a34.61,34.61,0,0,0-8.45,1.58V26.38h-22A33.1,33.1,0,0,0,.07,34.75c0,.7-.07,1.41-.07,2.12C.52,36.35,1.07,35.86,1.64,35.39Z"/><path class="cls-6" d="M.07,39a33.1,33.1,0,0,0,1.61,8.37h22V69.17a34.62,34.62,0,0,0,8.45,1.59c.71,0,1.42.07,2.15.07h0c.52-.52,1-1.06,1.49-1.63a23.72,23.72,0,0,0,5.6-15.34,24.06,24.06,0,0,0-.9-6.5c-.18-.61-.37-1.22-.59-1.82a24.1,24.1,0,0,0-5.6-8.65,0,0,0,0,1,0,0,24.44,24.44,0,0,0-8.74-5.54c-.61-.22-1.22-.41-1.84-.58A24.47,24.47,0,0,0,1.64,35.39c-.57.47-1.12,1-1.64,1.48C0,37.59,0,38.29.07,39Z"/><rect class="cls-7" x="82.52" width="1.03" height="73.74"/></g></g></svg>